#tb 0: 1/8000
0,          0,          0,      240,      480, 0x35e4a1fd
0,        240,        240,      240,      480, 0x2f7bdd60
0,        480,        480,      240,      480, 0x0407e499
0,        720,        720,      240,      480, 0x5f5ef209
0,        960,        960,      240,      480, 0xe936e8d1
0,       1200,       1200,      240,      480, 0x0896ddba
0,       1440,       1440,      240,      480, 0xa885ea94
0,       1680,       1680,      240,      480, 0x40bff3d0
0,       1920,       1920,      240,      480, 0xe05ce4c3
0,       2160,       2160,      240,      480, 0x80c4f790
0,       2400,       2400,      240,      480, 0x65d5e8f9
